<svg id="Capa_1" data-name="Capa 1" xmlns="http://www.w3.org/2000/svg" xmlns:xlink="http://www.w3.org/1999/xlink" viewBox="0 0 1080 1080"><defs><style>.cls-1{fill:url(#Degradado_sin_nombre_25);}.cls-2{fill:url(#Degradado_sin_nombre_25-2);}</style><linearGradient id="Degradado_sin_nombre_25" x1="297.9" y1="478.04" x2="782.1" y2="478.04" gradientUnits="userSpaceOnUse"><stop offset="0" stop-color="#6f2977"/><stop offset="0.31" stop-color="#a04b59"/><stop offset="0.61" stop-color="#c76641"/><stop offset="0.85" stop-color="#df7732"/><stop offset="0.99" stop-color="#e87d2d"/></linearGradient><linearGradient id="Degradado_sin_nombre_25-2" x1="409.52" y1="839" x2="669.51" y2="839" xlink:href="#Degradado_sin_nombre_25"/></defs><title>diseno_iconos_prog</title><path class="cls-1" d="M531.3,175.9c.33,6.13.93,12.27.93,18.4.06,89.31-.12,178.63.24,267.94,0,11.92-1.8,19.34-14.57,24.83-23.19,10-34.29,35.85-28.31,58.7,6.15,23.45,26.47,39.59,50.14,39.82,24.36.24,45.49-16.37,51.59-40.55,5.74-22.76-6.07-48-29.13-58.47-9.7-4.43-15.33-8.42-15.27-20.44.46-93.77.2-187.55.26-281.33,0-3.45,1.07-6.9,2.39-14.8,5.37,8.13,8.58,12.46,11.24,17.09Q668.8,374.4,777,561.6c7.45,12.83,7.65,19.64-5.24,29.22C711.89,635.33,676.61,694.65,670,769.58,668.9,782,664.27,786.07,652.41,786q-112.92-.37-225.83,0c-11.49,0-15.09-4.77-16.06-15.86C403.84,694.53,368.17,634.9,307.73,590c-11-8.16-12.65-14-5.56-26.16q110-189.43,218.91-379.53c1.84-3.2,4-6.22,6-9.32Z"/><path class="cls-2" d="M542.13,800.35c36.38,0,72.77.39,109.15-.24,13-.22,17.7,3.82,18,17.42,1.15,60.69,1.54,60.69-59.14,60.68-60,0-120-.43-180,.29-15.21.18-20.71-4.87-19.55-19.84,1.4-18.3-5.32-43.24,4.17-53.19,9.22-9.67,34.5-4.57,52.75-5C492.33,800,517.23,800.37,542.13,800.35Z"/></svg>