<svg id="Capa_1" data-name="Capa 1" xmlns="http://www.w3.org/2000/svg" xmlns:xlink="http://www.w3.org/1999/xlink" viewBox="0 0 1080 1080"><defs><style>.cls-1{fill:url(#Degradado_sin_nombre_25);}.cls-2{fill:url(#Degradado_sin_nombre_25-2);}.cls-3{fill:url(#Degradado_sin_nombre_25-3);}</style><linearGradient id="Degradado_sin_nombre_25" x1="408.36" y1="543.04" x2="684.42" y2="543.04" gradientUnits="userSpaceOnUse"><stop offset="0" stop-color="#6f2977"/><stop offset="0.31" stop-color="#a04b59"/><stop offset="0.61" stop-color="#c76641"/><stop offset="0.85" stop-color="#df7732"/><stop offset="0.99" stop-color="#e87d2d"/></linearGradient><linearGradient id="Degradado_sin_nombre_25-2" x1="675.92" y1="544.32" x2="1039.8" y2="544.32" xlink:href="#Degradado_sin_nombre_25"/><linearGradient id="Degradado_sin_nombre_25-3" x1="52.1" y1="544.38" x2="416.06" y2="544.38" xlink:href="#Degradado_sin_nombre_25"/></defs><title>diseno_iconos_prog</title><path class="cls-1" d="M684.42,275.34c-1.71,7.79-2.8,15.78-5.23,23.33q-83.62,259.53-167.4,519c-7.6,23.61-20.55,40.69-46.83,43.08-38.06,3.46-65.31-29.22-54-65.87,18.61-60.45,38.27-120.58,57.72-180.78q56.73-175.5,113.62-351c7-21.82,21.5-34.42,44-37.57C656.25,221.38,683.19,244.89,684.42,275.34Z"/><path class="cls-2" d="M867.94,544.13C813.18,518.61,760.27,494,707.41,469.3c-24.51-11.46-36.58-37.09-29.46-62,8.8-30.86,41.56-45.77,71.75-31.89C820.54,408,891.19,441,961.9,473.81c16.57,7.7,33.39,14.91,49.57,23.33,19.64,10.22,29.06,27.32,28.29,49.3s-11.68,37.94-31.72,47.27Q880.81,652.93,753.51,712c-32.76,15.19-65,2.62-75-28.89A51.7,51.7,0,0,1,706,620.29c48-22.59,96.15-44.71,144.21-67.08C855.71,550.64,861.05,547.66,867.94,544.13Z"/><path class="cls-3" d="M223.72,544.58c18.61,8.73,35.41,16.63,52.23,24.49,37.13,17.37,74.45,34.32,111.33,52.2,21.48,10.42,31.62,32.12,27.82,55.69-3.33,20.56-20.05,38.13-42.1,40.95a57.48,57.48,0,0,1-29.71-4.23Q212,653.76,81.38,592.28c-19.9-9.36-29.64-26.7-29.27-48.76.39-22.71,11.76-38.83,32.15-48.38,42.76-20,85.63-39.84,128.47-59.72Q276.36,405.87,340,376.37c28.59-13.23,58.45-3.76,70.82,22.37,12.64,26.69,1.78,57.09-26.54,70.61-49.86,23.79-100.11,46.75-150.18,70.07C231.39,540.69,228.73,542.09,223.72,544.58Z"/></svg>