<svg id="Capa_1" data-name="Capa 1" xmlns="http://www.w3.org/2000/svg" xmlns:xlink="http://www.w3.org/1999/xlink" viewBox="0 0 1080 1080"><defs><style>.cls-1,.cls-2,.cls-3{fill:none;stroke-miterlimit:10;stroke-width:30px;}.cls-1{stroke:url(#Degradado_sin_nombre_25);}.cls-2{stroke:url(#Degradado_sin_nombre_25-2);}.cls-3{stroke:url(#Degradado_sin_nombre_25-3);}</style><linearGradient id="Degradado_sin_nombre_25" x1="421.4" y1="540" x2="641.28" y2="540" gradientUnits="userSpaceOnUse"><stop offset="0" stop-color="#6f2977"/><stop offset="0.31" stop-color="#a04b59"/><stop offset="0.61" stop-color="#c76641"/><stop offset="0.85" stop-color="#df7732"/><stop offset="0.99" stop-color="#e87d2d"/></linearGradient><linearGradient id="Degradado_sin_nombre_25-2" x1="685.12" y1="541.01" x2="1005.09" y2="541.01" xlink:href="#Degradado_sin_nombre_25"/><linearGradient id="Degradado_sin_nombre_25-3" x1="87.69" y1="541.07" x2="407.73" y2="541.07" xlink:href="#Degradado_sin_nombre_25"/></defs><title>diseno_iconos_prog</title><path class="cls-1" d="M626.21,355.94c-1.17,5.35-1.92,10.84-3.59,16q-57.49,178.45-115.1,356.86c-5.23,16.23-14.14,28-32.2,29.62-26.18,2.38-44.91-20.09-37.15-45.29,12.8-41.57,26.32-82.91,39.69-124.3q39-120.67,78.12-241.32c4.84-15,14.78-23.66,30.25-25.83C606.84,318.83,625.37,335,626.21,355.94Z"/><path class="cls-2" d="M853.14,540.86c-43.64-20.33-85.81-39.93-127.93-59.63-19.53-9.13-29.15-29.55-23.48-49.41,7-24.6,33.12-36.47,57.18-25.41,56.45,26,112.75,52.25,169.1,78.42,13.21,6.13,26.61,11.88,39.51,18.59,15.65,8.15,23.15,21.77,22.54,39.28s-9.31,30.24-25.28,37.67Q863.4,627.58,761.94,674.65c-26.1,12.11-51.83,2.1-59.76-23a41.21,41.21,0,0,1,21.88-50.09c38.22-18,76.62-35.62,114.93-53.45C843.39,546.05,847.65,543.68,853.14,540.86Z"/><path class="cls-3" d="M239.46,541.22c14.83,7,28.21,13.26,41.62,19.52,29.58,13.84,59.33,27.35,88.71,41.6,17.13,8.3,25.21,25.6,22.17,44.38a39.38,39.38,0,0,1-33.55,32.63A45.84,45.84,0,0,1,334.74,676Q230.1,628.22,126,579.23c-15.86-7.45-23.62-21.27-23.32-38.85.31-18.1,9.37-30.95,25.62-38.56q51.12-23.94,102.37-47.59,50.71-23.53,101.44-47.05c22.79-10.55,46.59-3,56.44,17.82,10.07,21.27,1.42,45.5-21.15,56.27-39.73,19-79.77,37.26-119.68,55.85C245.57,538.13,243.44,539.24,239.46,541.22Z"/></svg>