<svg id="Capa_1" data-name="Capa 1" xmlns="http://www.w3.org/2000/svg" xmlns:xlink="http://www.w3.org/1999/xlink" viewBox="0 0 1080 1080"><defs><style>.cls-1{fill:url(#Degradado_sin_nombre_25);}</style><linearGradient id="Degradado_sin_nombre_25" x1="354.25" y1="540" x2="725.75" y2="540" gradientUnits="userSpaceOnUse"><stop offset="0" stop-color="#6f2977"/><stop offset="0.31" stop-color="#a04b59"/><stop offset="0.61" stop-color="#c76641"/><stop offset="0.85" stop-color="#df7732"/><stop offset="0.99" stop-color="#e87d2d"/></linearGradient></defs><title>diseno_iconos_prog</title><path class="cls-1" d="M620.51,705.12h19.06v41.45c6.54,0,11.9.38,17.18-.09,6.8-.61,8.83,2,8.76,8.74-.3,30.86,0,61.72-.19,92.58-.08,17.25-.28,17.3-17.34,17.32-73.8.07-147.6,0-221.4.34-7.91,0-10.38-2-10.28-10.1q.68-49.46.06-98.93c-.11-8.23,2.72-10.23,10.46-10.06,17.45.39,15.84,2.63,15.95-15.84,0-5.44.31-10.92-.14-16.33-.59-7,1.83-10.18,9.15-9.21,3.19.43,6.48.07,10.27.07-12.88-67.79-49-117.88-107.8-152.55,8.83-18.23,17.19-35.57,25.63-52.88Q446.8,362.28,513.57,224.85c3.44-7.11,7.52-10.34,15.2-9.31a22.27,22.27,0,0,0,7.24,0c21.54-4.36,31.67,5.45,40.92,25.05,47.83,101.4,97.48,202,146.8,302.65,3.42,7,2.72,10.25-3.84,14.4C668.58,590.05,636.06,636,621.9,695c-.49,2.06-1,4.12-1.37,6.2A28.84,28.84,0,0,0,620.51,705.12ZM528.12,257.44l-1.73-.55c-2.93,6.08-5.84,12.18-8.8,18.25q-63.38,130-126.9,259.89c-3.09,6.31-2.05,9.4,3.24,14.05,15.63,13.75,31.7,27.35,45.18,43.08,25.12,29.31,37.87,65,46.92,102,1.94,8,4.57,11.4,13.64,11.16,27.5-.74,55-.61,82.55-.06,8.39.16,11.91-2,13.88-10.62,13.71-60.15,42.67-110.83,94-146.94,5.25-3.69,4.11-6.84,1.92-11.33Q636.22,421.88,580.56,307.31c-8.13-16.71-16.35-33.38-25.73-52.51-.43,4.17-.69,5.52-.69,6.88-.08,60.49-.07,121-.33,181.49,0,5.6,2.49,7.76,7.06,9.84,21.14,9.6,31.93,31.3,27.11,53.79a47.43,47.43,0,0,1-45.59,37.12c-23.35.34-42.9-14.53-47.92-36.44-5.14-22.47,5.1-44.4,26.22-54.15,6.33-2.91,7.94-6.42,7.91-13-.26-58.38-.14-116.77-.16-175.15C528.44,262.6,528.23,260,528.12,257.44Zm-86.05,581a26.81,26.81,0,0,0,4.47.95q93.4.09,186.81.2c6.14,0,6.84-3.19,6.81-8-.08-16.63-.42-33.27.16-49.88.29-8.41-2.52-10.78-10.83-10.71-42.32.38-84.64.18-127,.18h-52.6c-4.05,0-8-.3-7.92,5.77C442.16,797.21,442.07,817.45,442.07,838.45ZM613.52,732.18c-1-.69-1.27-1-1.52-1-46.24-.17-92.48-.39-138.73-.25-1.87,0-5,3-5.39,5-1.5,7,.4,10.89,9.21,10.8,42.63-.44,85.26-.19,127.89-.23,2.65,0,5.3-.36,8.54-.59ZM563.61,496.43a22.64,22.64,0,0,0-22.07-22.81c-12.45-.22-23.27,10.51-23.08,22.89a22.83,22.83,0,0,0,22.7,22.28A22.4,22.4,0,0,0,563.61,496.43Z"/></svg>